<svg id="svg" version="1.1" xmlns="http://www.w3.org/2000/svg" xmlns:xlink="http://www.w3.org/1999/xlink" width="400" height="400" viewBox="0, 0, 400,400"><g id="svgg"><path id="path0" d="M189.691 178.251 L 189.691 181.818 186.364 181.818 C 181.576 181.818,180.599 182.057,181.213 183.080 C 181.584 183.697,181.715 188.287,181.787 203.187 C 181.867 219.656,181.963 222.584,182.439 223.114 C 183.220 223.985,183.202 227.937,182.415 228.512 C 181.906 228.884,181.826 230.942,181.780 244.834 C 181.717 264.096,182.002 262.572,178.428 262.726 L 175.633 262.847 174.789 264.636 C 174.178 265.932,173.946 267.113,173.946 268.920 L 173.946 271.415 178.043 271.415 C 183.391 271.415,183.318 271.342,183.318 276.690 L 183.318 280.787 186.701 280.787 C 190.556 280.787,191.158 280.291,190.422 277.722 C 190.032 276.363,189.907 184.168,190.293 183.161 C 190.492 182.642,191.790 182.562,200.696 182.524 C 206.293 182.499,211.378 182.350,211.996 182.193 C 212.745 182.003,212.870 181.892,212.371 181.863 C 211.679 181.823,211.621 181.555,211.621 178.351 L 211.621 174.883 200.656 174.783 L 189.691 174.684 189.691 178.251 M213.777 182.287 C 213.839 182.599,213.465 182.724,212.652 182.660 C 211.776 182.592,211.434 182.723,211.434 183.129 C 211.434 183.439,211.097 184.030,210.684 184.442 C 209.944 185.182,209.934 185.692,209.934 223.618 L 209.934 262.043 214.058 262.043 C 218.393 262.043,218.578 261.978,217.526 260.815 C 216.812 260.025,216.483 228.754,217.181 228.054 C 217.353 227.882,221.486 227.657,226.366 227.554 L 235.239 227.366 235.347 224.085 C 235.447 221.060,235.528 220.756,236.390 220.192 C 237.822 219.254,237.556 219.223,228.524 219.285 C 223.467 219.320,219.793 219.192,219.372 218.967 C 218.035 218.251,217.928 182.575,219.263 182.562 C 219.791 182.557,219.797 182.510,219.306 182.193 C 218.437 181.631,213.662 181.712,213.777 182.287 M237.301 228.414 L 236.364 228.888 236.364 245.372 L 236.364 261.856 240.581 261.962 C 244.618 262.063,245.635 261.798,244.229 261.012 C 243.740 260.738,243.655 259.074,243.629 249.239 L 243.598 237.785 244.667 236.700 L 245.736 235.614 254.698 235.426 L 263.659 235.239 263.575 232.058 C 263.528 230.308,263.427 228.813,263.350 228.736 C 262.503 227.889,238.915 227.597,237.301 228.414 M263.820 237.294 L 262.785 238.386 262.883 254.807 L 262.980 271.228 267.104 271.228 C 270.579 271.228,271.207 271.139,271.094 270.665 C 271.021 270.356,270.987 265.353,271.019 259.546 C 271.058 252.516,270.946 248.908,270.684 248.746 C 270.095 248.382,270.210 247.055,270.853 246.808 C 271.162 246.690,271.415 246.364,271.415 246.084 C 271.415 245.192,272.781 244.799,275.872 244.799 C 280.224 244.799,280.857 244.119,280.708 239.613 L 280.600 236.364 272.727 236.283 L 264.855 236.203 263.820 237.294 M290.628 244.892 C 290.698 245.242,289.559 245.387,286.129 245.466 L 281.537 245.571 281.537 249.871 L 281.537 254.171 285.098 254.171 C 287.570 254.171,288.660 254.036,288.660 253.731 C 288.660 253.490,288.955 252.966,289.316 252.568 C 289.676 252.169,290.145 251.144,290.358 250.289 C 290.575 249.416,290.945 248.776,291.202 248.828 C 291.693 248.929,291.827 246.774,291.423 245.267 C 291.190 244.398,290.460 244.054,290.628 244.892 M290.747 251.907 C 290.250 252.085,290.162 252.253,290.465 252.441 C 291.180 252.883,290.984 254.479,290.161 254.919 C 289.425 255.313,289.412 255.783,289.318 286.329 L 289.222 317.338 285.473 317.526 L 281.724 317.713 281.724 330.459 L 281.724 343.205 286.129 343.311 C 289.705 343.397,290.534 343.520,290.534 343.967 C 290.534 344.270,290.703 344.517,290.909 344.517 C 291.115 344.517,291.286 344.222,291.289 343.861 C 291.292 343.500,291.378 342.784,291.481 342.268 C 291.583 341.753,291.567 341.543,291.444 341.802 C 291.074 342.579,290.534 341.928,290.534 340.706 C 290.534 339.845,290.672 339.617,291.097 339.779 C 291.588 339.968,291.659 338.636,291.659 329.149 L 291.659 318.304 295.127 318.196 L 298.594 318.088 298.690 285.192 L 298.786 252.296 295.254 252.296 C 293.311 252.296,291.665 252.150,291.596 251.972 C 291.528 251.793,291.145 251.764,290.747 251.907 M146.579 267.291 C 146.579 281.754,146.604 282.287,147.289 282.287 C 147.679 282.287,148.096 282.540,148.214 282.849 C 148.378 283.275,149.069 283.411,151.066 283.411 L 153.702 283.411 153.707 286.504 C 153.713 289.837,153.958 291.284,154.518 291.284 C 154.712 291.284,154.778 291.133,154.663 290.948 C 154.120 290.069,163.256 289.741,164.124 290.609 C 164.446 290.932,164.574 293.375,164.574 299.231 L 164.574 307.404 166.427 307.404 C 167.909 307.404,168.395 307.568,168.855 308.225 C 169.310 308.875,169.830 309.056,171.340 309.090 C 173.947 309.149,173.933 309.100,173.940 318.182 L 173.946 326.148 177.161 326.148 C 180.220 326.148,180.430 326.094,181.480 325.045 L 182.583 323.941 182.482 316.141 L 182.381 308.341 177.882 308.154 L 173.383 307.966 173.196 299.531 L 173.008 291.097 169.452 290.988 C 164.414 290.833,163.891 290.314,163.743 285.322 L 163.636 281.724 160.450 281.613 C 157.580 281.513,157.199 281.582,156.617 282.299 C 155.867 283.223,154.707 283.147,154.517 282.161 C 154.445 281.787,154.696 281.139,155.075 280.721 C 155.693 280.039,155.776 279.089,155.878 271.484 C 155.949 266.195,156.143 262.826,156.393 262.525 C 156.698 262.157,158.907 262.043,165.756 262.043 L 174.720 262.043 174.614 257.826 L 174.508 253.608 164.653 253.508 C 156.352 253.424,154.765 253.321,154.585 252.852 C 154.415 252.410,153.573 252.296,150.475 252.296 L 146.579 252.296 146.579 267.291 M184.445 325.958 C 184.189 326.266,183.296 326.702,182.460 326.927 C 181.624 327.152,181.116 327.449,181.332 327.586 C 181.586 327.747,181.718 330.551,181.705 335.520 L 181.686 343.205 186.251 343.311 C 189.513 343.386,190.824 343.546,190.846 343.873 C 191.348 351.468,191.126 361.826,190.446 362.506 C 189.795 363.157,189.691 363.753,189.691 366.823 L 189.691 370.384 235.989 370.384 L 282.287 370.384 282.287 366.726 C 282.287 363.473,282.204 363.015,281.537 362.599 C 280.821 362.152,280.787 361.724,280.787 353.124 L 280.787 344.118 276.570 344.224 L 272.352 344.330 272.251 352.560 C 272.177 358.570,272.026 360.869,271.689 361.083 C 270.686 361.720,200.670 361.442,200.027 360.798 C 199.528 360.299,199.438 358.979,199.438 352.176 L 199.438 344.142 195.897 344.142 C 190.418 344.142,190.461 344.207,190.310 335.708 C 190.243 331.996,190.326 328.580,190.493 328.116 C 191.341 325.763,186.145 323.909,184.445 325.958 " stroke="none" fill="#0a0a0a" fill-rule="evenodd"></path><path id="path1" d="M8.622 125.773 L 8.622 229.053 94.470 229.053 L 180.319 229.053 180.408 245.267 L 180.498 261.481 180.600 245.415 C 180.697 230.028,180.733 229.309,181.447 228.401 C 182.445 227.133,182.444 224.601,181.447 223.332 C 180.726 222.416,180.697 221.705,180.600 202.757 L 180.499 183.130 180.409 202.905 C 180.333 219.449,180.234 222.680,179.800 222.680 C 179.515 222.680,179.190 222.330,179.078 221.903 C 178.966 221.475,178.525 221.034,178.097 220.922 L 177.320 220.719 177.320 124.792 L 177.320 28.866 194.377 28.866 L 211.434 28.866 211.434 87.692 C 211.434 120.046,211.536 146.785,211.661 147.111 C 211.856 147.618,212.776 147.704,218.034 147.704 L 224.180 147.704 224.180 182.755 L 224.180 217.807 221.934 217.807 L 219.689 217.807 219.588 200.469 L 219.486 183.130 219.396 200.603 L 219.306 218.076 223.743 218.335 C 226.184 218.478,230.113 218.479,232.476 218.338 C 236.242 218.113,236.850 218.160,237.411 218.721 C 237.928 219.237,238.051 219.255,238.051 218.815 C 238.051 218.116,236.911 217.818,234.208 217.812 L 232.052 217.807 232.052 182.755 L 232.052 147.704 237.445 147.704 C 242.719 147.704,242.842 147.686,243.063 146.860 C 243.507 145.201,243.329 31.052,242.882 31.329 C 241.901 31.935,241.365 28.943,242.314 28.156 C 243.034 27.559,244.049 28.042,244.049 28.981 C 244.049 29.591,244.149 29.666,244.499 29.316 C 244.826 28.989,247.639 28.866,254.807 28.866 L 264.665 28.866 264.760 88.191 L 264.855 147.516 271.134 147.619 L 277.413 147.722 277.413 184.220 L 277.413 220.719 276.636 220.922 C 276.208 221.034,275.767 221.475,275.655 221.903 C 275.452 222.676,275.357 222.680,256.960 222.680 L 238.469 222.680 238.353 221.210 L 238.238 219.741 237.366 220.450 C 236.648 221.034,236.483 221.554,236.429 223.404 C 236.320 227.142,235.669 226.961,249.966 227.179 C 265.178 227.411,264.667 227.235,264.667 232.265 L 264.667 235.426 272.446 235.341 L 280.225 235.255 272.634 235.146 L 265.042 235.036 265.042 232.045 L 265.042 229.053 328.170 229.053 C 385.388 229.053,391.319 228.998,391.525 228.460 C 391.823 227.685,391.823 23.861,391.525 23.086 C 391.318 22.546,374.089 22.493,199.960 22.493 L 8.622 22.493 8.622 125.773 M49.110 88.285 L 49.110 147.704 56.045 147.704 L 62.980 147.704 62.980 184.230 C 62.980 220.426,62.974 220.758,62.231 220.993 C 61.818 221.124,61.481 221.557,61.481 221.956 C 61.481 222.664,60.969 222.680,38.988 222.680 L 16.495 222.680 16.495 125.773 L 16.495 28.866 32.802 28.866 L 49.110 28.866 49.110 88.285 M103.843 88.285 L 103.843 147.704 110.028 147.704 L 116.214 147.704 116.214 184.230 C 116.214 220.426,116.207 220.758,115.464 220.993 C 115.052 221.124,114.714 221.557,114.714 221.956 C 114.714 222.664,114.212 222.680,92.971 222.680 C 71.730 222.680,71.228 222.664,71.228 221.956 C 71.228 221.557,70.890 221.124,70.478 220.993 C 69.735 220.758,69.728 220.426,69.728 184.230 L 69.728 147.704 75.914 147.704 L 82.099 147.704 82.099 88.285 L 82.099 28.866 92.971 28.866 L 103.843 28.866 103.843 88.285 M169.447 125.773 L 169.447 222.680 146.954 222.680 L 124.461 222.680 124.461 185.192 L 124.461 147.704 130.647 147.704 L 136.832 147.704 136.832 88.285 L 136.832 28.866 153.140 28.866 L 169.447 28.866 169.447 125.773 M317.901 88.285 L 317.901 147.704 324.086 147.704 L 330.272 147.704 330.272 185.192 L 330.272 222.680 307.779 222.680 L 285.286 222.680 285.286 185.192 L 285.286 147.704 290.271 147.704 L 295.256 147.704 295.106 145.345 C 294.989 143.507,295.088 142.876,295.556 142.488 C 296.103 142.034,296.157 136.947,296.157 86.408 C 296.157 31.143,296.162 30.827,296.907 30.632 C 297.356 30.514,297.657 30.120,297.657 29.651 C 297.657 28.874,297.756 28.866,307.779 28.866 L 317.901 28.866 317.901 88.285 M385.005 124.811 C 385.005 220.426,385.002 220.756,384.255 220.993 C 383.843 221.124,383.505 221.557,383.505 221.956 C 383.505 222.664,383.003 222.680,361.762 222.680 C 340.521 222.680,340.019 222.664,340.019 221.956 C 340.019 221.557,339.681 221.124,339.269 220.993 C 338.526 220.758,338.519 220.426,338.519 184.230 L 338.519 147.704 344.705 147.704 L 350.890 147.704 350.890 88.285 L 350.890 28.866 367.948 28.866 L 385.005 28.866 385.005 124.811 M191.190 230.248 C 191.190 277.136,191.191 277.178,191.963 278.001 L 192.737 278.824 191.796 279.838 C 191.279 280.396,190.791 281.049,190.711 281.289 C 190.475 281.995,183.013 281.879,182.560 281.162 C 182.365 280.853,182.202 278.801,182.199 276.602 L 182.193 272.604 177.868 272.478 C 174.545 272.382,173.454 272.222,173.163 271.790 C 172.520 270.835,172.943 264.655,173.688 264.110 C 174.884 263.236,174.296 263.168,165.511 263.168 L 156.701 263.168 156.701 271.978 L 156.701 280.787 160.187 280.787 C 164.542 280.787,164.574 280.818,164.574 284.969 C 164.574 289.584,165.149 290.159,169.764 290.159 C 174.204 290.159,173.946 289.599,173.946 299.231 L 173.946 307.404 178.404 307.404 C 183.823 307.404,183.318 306.455,183.318 316.619 L 183.318 324.649 187.006 324.649 C 190.577 324.649,190.709 324.678,191.122 325.586 C 191.357 326.101,191.721 326.523,191.932 326.523 C 192.505 326.523,192.393 327.866,191.778 328.377 C 191.351 328.730,191.236 330.138,191.220 335.193 L 191.200 341.563 192.187 342.478 C 193.087 343.312,193.483 343.393,196.681 343.393 C 198.609 343.393,200.221 343.435,200.263 343.486 C 200.305 343.538,200.431 347.376,200.544 352.015 L 200.750 360.450 235.989 360.450 L 271.228 360.450 271.415 352.015 L 271.603 343.580 276.101 343.393 L 280.600 343.205 280.787 330.084 L 280.975 316.963 284.724 316.776 L 288.472 316.589 288.568 285.942 L 288.664 255.295 285.451 255.295 C 280.683 255.295,280.787 255.417,280.787 249.853 C 280.787 244.383,280.271 244.857,286.410 244.689 L 290.347 244.582 286.317 244.503 L 282.287 244.424 282.282 240.581 C 282.275 235.906,282.083 235.052,281.035 235.052 C 280.251 235.052,280.251 235.056,281.079 235.635 C 282.581 236.687,282.269 243.577,280.694 244.158 C 280.333 244.291,280.037 244.658,280.037 244.974 C 280.037 245.451,279.409 245.548,276.329 245.548 C 271.698 245.548,272.123 244.151,272.155 259.283 C 272.175 268.506,272.067 271.807,271.737 272.010 C 270.973 272.483,264.174 272.640,263.074 272.211 L 262.043 271.809 262.043 254.630 C 262.043 241.768,262.156 237.338,262.493 237.001 C 262.843 236.651,261.082 236.551,254.570 236.551 L 246.197 236.551 245.310 237.508 C 244.267 238.634,244.251 238.759,244.984 240.163 C 245.676 241.490,245.786 254.208,245.130 257.050 C 244.786 258.539,244.817 259.113,245.302 260.274 C 245.988 261.915,245.820 262.632,244.679 262.938 C 243.348 263.295,237.429 263.198,236.388 262.802 L 235.426 262.437 235.426 245.551 L 235.426 228.665 226.710 228.765 L 217.994 228.866 218.075 229.991 C 218.119 230.609,218.147 231.453,218.137 231.865 C 217.710 248.918,217.813 256.457,218.509 259.052 C 219.370 262.264,219.272 262.695,217.603 263.008 C 215.296 263.441,209.569 263.040,209.176 262.418 C 208.787 261.801,208.650 185.669,209.037 184.660 C 209.162 184.334,209.500 184.067,209.787 184.067 C 210.074 184.067,210.309 183.899,210.309 183.693 C 210.309 183.452,206.873 183.318,200.750 183.318 L 191.190 183.318 191.190 230.248 M291.379 250.234 C 291.383 251.059,291.459 251.352,291.549 250.886 C 291.639 250.420,291.635 249.745,291.542 249.386 C 291.448 249.028,291.374 249.410,291.379 250.234 M174.096 252.622 C 174.694 252.752,175.315 253.196,175.475 253.608 C 175.758 254.334,175.768 254.332,175.794 253.555 C 175.822 252.694,175.131 252.269,173.821 252.341 C 173.206 252.374,173.273 252.443,174.096 252.622 M175.612 258.482 L 175.633 261.856 178.069 261.881 L 180.506 261.907 178.177 261.771 L 175.848 261.635 175.719 258.371 L 175.590 255.108 175.612 258.482 M159.224 291.564 L 163.060 291.685 163.161 300.008 C 163.256 307.889,163.300 308.339,163.985 308.470 C 164.662 308.601,164.668 308.569,164.078 307.980 C 163.528 307.430,163.449 306.339,163.449 299.317 L 163.449 291.284 159.419 291.363 L 155.389 291.442 159.224 291.564 M165.503 308.541 C 165.375 308.749,165.854 308.903,166.625 308.903 C 167.476 308.903,168.050 309.110,168.187 309.466 C 168.341 309.868,168.899 310.010,170.143 309.965 C 171.882 309.902,171.882 309.902,170.406 309.751 C 169.593 309.667,168.750 309.379,168.531 309.110 C 168.023 308.484,165.797 308.065,165.503 308.541 M172.526 317.964 C 172.447 325.960,172.551 327.273,173.258 327.273 C 173.455 327.273,173.479 327.063,173.312 326.804 C 173.145 326.546,172.918 322.624,172.807 318.088 L 172.605 309.841 172.526 317.964 M180.478 335.520 C 180.478 339.953,180.532 341.767,180.598 339.550 C 180.665 337.334,180.665 333.707,180.598 331.490 C 180.532 329.274,180.478 331.087,180.478 335.520 M180.694 344.194 C 180.694 344.372,181.115 344.517,181.631 344.517 C 182.146 344.517,182.568 344.453,182.568 344.374 C 182.568 344.295,182.146 344.149,181.631 344.051 C 181.115 343.952,180.694 344.017,180.694 344.194 M186.404 344.417 L 189.677 344.545 189.788 353.060 L 189.899 361.575 189.889 352.952 L 189.878 344.330 186.504 344.309 L 183.130 344.288 186.404 344.417 M282.080 344.619 C 281.980 344.881,281.946 348.972,282.006 353.710 L 282.114 362.324 282.200 353.435 L 282.287 344.545 285.754 344.422 L 289.222 344.298 285.743 344.220 C 283.214 344.164,282.213 344.273,282.080 344.619 " stroke="none" fill="#fbfbfb" fill-rule="evenodd"></path><path id="path2" d="M296.157 144.693 C 296.157 145.865,296.277 146.135,296.723 145.964 C 297.893 145.515,297.872 143.205,296.698 143.205 C 296.318 143.205,296.157 143.648,296.157 144.693 M190.613 183.411 C 190.515 183.669,190.478 204.967,190.532 230.740 L 190.628 277.601 190.815 230.272 C 190.918 204.241,190.955 182.943,190.897 182.943 C 190.839 182.943,190.712 183.154,190.613 183.411 M218.729 200.750 C 218.730 210.234,218.778 214.061,218.838 209.253 C 218.897 204.445,218.897 196.685,218.837 192.008 C 218.778 187.331,218.729 191.265,218.729 200.750 M209.435 184.692 C 209.087 185.039,209.119 261.958,209.466 262.173 C 209.620 262.268,209.747 244.818,209.747 223.394 C 209.747 201.971,209.733 184.442,209.716 184.442 C 209.699 184.442,209.572 184.555,209.435 184.692 M181.243 203.749 C 181.242 214.264,181.290 218.620,181.349 213.428 C 181.408 208.236,181.408 199.633,181.349 194.309 C 181.291 188.986,181.243 193.233,181.243 203.749 M219.267 218.669 C 219.433 218.834,220.732 218.916,222.155 218.852 L 224.742 218.737 221.854 218.553 C 220.265 218.452,219.101 218.504,219.267 218.669 M233.075 218.827 C 233.741 218.910,234.921 218.911,235.699 218.830 C 236.477 218.749,235.933 218.681,234.489 218.680 C 233.046 218.678,232.410 218.744,233.075 218.827 M226.898 219.205 C 227.671 219.286,228.936 219.286,229.709 219.205 C 230.483 219.124,229.850 219.058,228.304 219.058 C 226.757 219.058,226.125 219.124,226.898 219.205 M236.195 220.596 C 235.949 220.893,235.818 221.610,235.905 222.189 C 236.059 223.213,236.065 223.209,236.120 222.043 C 236.153 221.342,236.449 220.684,236.832 220.461 C 237.193 220.251,237.298 220.074,237.066 220.068 C 236.833 220.061,236.441 220.299,236.195 220.596 M257.638 227.827 C 258.411 227.908,259.677 227.908,260.450 227.827 C 261.223 227.746,260.590 227.680,259.044 227.680 C 257.498 227.680,256.865 227.746,257.638 227.827 M226.898 228.210 L 235.801 228.317 235.887 236.839 L 235.974 245.361 236.082 236.944 C 236.162 230.791,236.315 228.447,236.652 228.233 C 236.906 228.072,232.812 227.977,227.554 228.021 L 217.994 228.102 226.898 228.210 M181.240 244.986 C 181.240 253.852,181.289 257.425,181.349 252.927 C 181.409 248.428,181.409 241.174,181.349 236.807 C 181.289 232.439,181.240 236.120,181.240 244.986 M264.053 232.427 C 264.053 234.386,264.116 235.187,264.193 234.208 C 264.270 233.229,264.270 231.626,264.193 230.647 C 264.116 229.667,264.053 230.469,264.053 232.427 M217.222 244.986 C 217.222 250.759,217.274 253.069,217.338 250.118 C 217.401 247.167,217.401 242.444,217.337 239.621 C 217.274 236.799,217.222 239.213,217.222 244.986 M250.162 236.081 C 252.596 236.147,256.476 236.147,258.784 236.081 C 261.092 236.015,259.100 235.962,254.358 235.962 C 249.616 235.962,247.727 236.016,250.162 236.081 M281.293 239.925 C 281.293 241.678,281.358 242.395,281.437 241.518 C 281.516 240.642,281.516 239.208,281.437 238.332 C 281.358 237.455,281.293 238.172,281.293 239.925 M274.144 245.449 C 275.130 245.527,276.648 245.526,277.518 245.447 C 278.388 245.369,277.582 245.305,275.726 245.306 C 273.871 245.308,273.159 245.372,274.144 245.449 M235.958 254.171 C 235.958 258.191,236.013 259.836,236.081 257.826 C 236.148 255.815,236.148 252.526,236.081 250.515 C 236.013 248.505,235.958 250.150,235.958 254.171 M271.581 259.606 C 271.581 265.586,271.633 267.979,271.696 264.926 C 271.759 261.872,271.759 256.979,271.695 254.054 C 271.632 251.128,271.580 253.627,271.581 259.606 M285.473 254.545 L 281.724 254.775 285.777 254.848 C 288.400 254.895,289.747 254.788,289.597 254.545 C 289.470 254.339,289.333 254.203,289.294 254.243 C 289.254 254.283,287.535 254.419,285.473 254.545 M174.577 262.324 C 174.488 262.479,174.535 262.938,174.683 263.345 C 174.921 264.001,174.973 263.970,175.146 263.064 C 175.325 262.127,174.963 261.657,174.577 262.324 M160.731 262.692 C 161.607 262.771,163.041 262.771,163.918 262.692 C 164.794 262.614,164.077 262.549,162.324 262.549 C 160.572 262.549,159.855 262.614,160.731 262.692 M173.312 268.978 C 173.314 270.216,173.384 270.676,173.468 270.003 C 173.551 269.329,173.549 268.317,173.464 267.753 C 173.378 267.190,173.310 267.741,173.312 268.978 M177.976 272.055 C 178.440 272.144,179.199 272.144,179.663 272.055 C 180.127 271.965,179.747 271.892,178.819 271.892 C 177.891 271.892,177.512 271.965,177.976 272.055 M265.698 272.061 C 266.368 272.144,267.465 272.144,268.135 272.061 C 268.805 271.978,268.257 271.910,266.917 271.910 C 265.576 271.910,265.028 271.978,265.698 272.061 M182.708 276.476 C 182.709 278.744,182.771 279.624,182.845 278.431 C 182.920 277.237,182.919 275.382,182.844 274.307 C 182.768 273.232,182.707 274.208,182.708 276.476 M191.163 278.257 C 191.572 278.800,191.572 279.026,191.163 279.569 C 190.693 280.194,190.703 280.194,191.385 279.569 C 192.089 278.923,192.089 278.902,191.385 278.257 C 190.703 277.632,190.693 277.632,191.163 278.257 M157.170 290.811 C 158.355 290.886,160.295 290.886,161.481 290.811 C 162.666 290.737,161.696 290.676,159.325 290.676 C 156.954 290.676,155.984 290.737,157.170 290.811 M163.899 299.228 C 163.858 303.700,163.950 307.438,164.105 307.534 C 164.260 307.630,164.343 305.236,164.289 302.214 C 164.111 292.073,163.975 291.037,163.899 299.228 M173.271 317.972 C 173.230 322.445,173.322 326.182,173.477 326.278 C 173.632 326.374,173.715 323.980,173.661 320.958 C 173.483 310.817,173.347 309.781,173.271 317.972 M181.225 335.333 C 181.225 339.250,181.281 340.802,181.348 338.781 C 181.416 336.760,181.415 333.555,181.347 331.658 C 181.280 329.762,181.224 331.415,181.225 335.333 M190.548 330.459 C 190.551 331.490,190.623 331.867,190.709 331.298 C 190.796 330.728,190.793 329.884,190.704 329.423 C 190.615 328.962,190.545 329.428,190.548 330.459 M281.082 352.665 C 281.140 357.765,281.309 362.059,281.456 362.207 C 281.604 362.354,281.677 358.182,281.618 352.934 C 281.560 347.686,281.391 343.393,281.244 343.392 C 281.096 343.392,281.023 347.565,281.082 352.665 M190.602 353.140 C 190.602 357.985,190.655 359.967,190.720 357.545 C 190.786 355.122,190.786 351.157,190.720 348.735 C 190.655 346.312,190.602 348.294,190.602 353.140 M199.972 352.390 C 199.972 356.823,200.026 358.636,200.092 356.420 C 200.159 354.203,200.159 350.576,200.092 348.360 C 200.026 346.143,199.972 347.957,199.972 352.390 " stroke="none" fill="#7c7c7c" fill-rule="evenodd"></path><path id="path3" d="M242.830 28.705 C 242.676 28.862,242.549 29.418,242.549 29.941 C 242.549 30.623,242.664 30.776,242.956 30.484 C 243.179 30.260,243.306 29.704,243.237 29.249 C 243.168 28.793,242.985 28.548,242.830 28.705 M210.524 182.529 C 209.836 182.799,209.834 182.824,210.487 183.075 C 211.134 183.323,211.127 183.385,210.364 184.197 L 209.556 185.057 209.651 223.644 L 209.747 262.231 213.971 262.337 C 218.487 262.450,219.707 261.937,217.962 260.661 C 216.976 259.940,216.828 228.914,217.807 228.296 C 218.119 228.098,222.249 227.938,227.085 227.935 L 235.801 227.929 235.801 224.442 C 235.801 222.183,235.966 220.771,236.270 220.430 C 236.667 219.985,236.641 219.979,236.097 220.390 C 235.594 220.769,235.431 221.582,235.347 224.120 L 235.239 227.366 226.366 227.554 C 221.486 227.657,217.353 227.882,217.181 228.054 C 216.483 228.754,216.812 260.025,217.526 260.815 C 218.578 261.978,218.393 262.043,214.058 262.043 L 209.934 262.043 209.934 223.618 C 209.934 185.692,209.944 185.182,210.684 184.442 C 211.097 184.030,211.434 183.426,211.434 183.100 C 211.434 182.642,211.680 182.562,212.523 182.748 C 213.148 182.885,213.716 182.818,213.857 182.590 C 214.142 182.130,211.659 182.084,210.524 182.529 M180.848 182.805 C 180.964 183.039,181.161 183.883,181.287 184.680 C 181.584 186.571,181.818 186.773,181.818 185.139 C 181.818 184.422,181.553 183.508,181.228 183.108 C 180.903 182.708,180.733 182.572,180.848 182.805 M190.293 183.161 C 190.168 183.487,190.107 204.785,190.157 230.490 L 190.249 277.226 190.438 230.178 L 190.628 183.130 200.187 182.933 L 209.747 182.736 200.134 182.652 C 191.664 182.578,190.494 182.638,190.293 183.161 M218.324 190.815 C 218.324 193.187,218.384 194.157,218.459 192.971 C 218.533 191.785,218.533 189.845,218.459 188.660 C 218.384 187.474,218.324 188.444,218.324 190.815 M181.533 207.358 C 181.453 220.937,181.508 222.643,182.044 223.087 C 182.515 223.478,182.613 224.128,182.500 226.125 C 182.421 227.527,182.500 228.521,182.677 228.345 C 183.248 227.774,183.047 223.792,182.412 223.090 C 181.906 222.531,181.813 220.395,181.724 207.285 L 181.622 192.127 181.533 207.358 M221.087 219.206 C 221.963 219.285,223.397 219.285,224.274 219.206 C 225.150 219.127,224.433 219.063,222.680 219.063 C 220.928 219.063,220.211 219.127,221.087 219.206 M232.146 219.205 C 232.919 219.286,234.185 219.286,234.958 219.205 C 235.731 219.124,235.098 219.058,233.552 219.058 C 232.006 219.058,231.373 219.124,232.146 219.205 M237.207 227.990 C 236.640 228.197,236.176 228.541,236.176 228.756 C 236.176 228.975,236.447 228.920,236.795 228.631 C 237.269 228.237,239.664 228.069,247.011 227.914 L 256.607 227.711 247.423 227.662 C 242.074 227.634,237.807 227.770,237.207 227.990 M258.857 228.116 C 259.757 228.424,263.191 228.549,262.731 228.257 C 262.456 228.083,261.387 227.951,260.356 227.964 C 259.325 227.977,258.650 228.046,258.857 228.116 M181.615 244.424 C 181.615 253.187,181.664 256.771,181.724 252.390 C 181.784 248.008,181.784 240.839,181.724 236.457 C 181.664 232.076,181.615 235.661,181.615 244.424 M263.674 231.678 C 263.674 233.430,263.738 234.147,263.817 233.271 C 263.896 232.395,263.896 230.961,263.817 230.084 C 263.738 229.208,263.674 229.925,263.674 231.678 M254.733 235.426 L 245.736 235.614 244.667 236.700 L 243.598 237.785 243.629 249.239 C 243.655 259.074,243.740 260.738,244.229 261.012 C 245.560 261.757,244.593 262.043,240.750 262.043 C 238.041 262.043,236.527 261.888,236.176 261.575 C 235.728 261.176,235.724 261.204,236.146 261.762 C 236.566 262.316,237.275 262.418,240.699 262.418 C 244.910 262.418,245.707 262.132,244.677 260.989 C 244.189 260.446,244.136 259.099,244.311 251.546 C 244.445 245.766,244.371 241.974,244.096 240.518 L 243.676 238.299 244.944 237.030 L 246.213 235.762 254.847 235.875 C 264.053 235.996,264.493 236.077,263.232 237.420 C 262.426 238.278,261.889 269.225,262.646 271.197 C 262.917 271.905,270.810 272.091,271.237 271.400 C 271.618 270.784,271.425 248.891,271.033 248.159 C 270.784 247.694,270.844 247.366,271.236 247.041 C 271.541 246.788,271.790 246.367,271.790 246.105 C 271.790 245.377,272.703 245.173,275.973 245.173 C 280.310 245.173,281.162 244.298,281.162 239.841 C 281.162 235.566,281.689 235.801,272.121 235.801 C 267.644 235.801,263.924 235.675,263.855 235.520 C 263.786 235.366,259.681 235.323,254.733 235.426 M280.708 239.613 C 280.857 244.119,280.224 244.799,275.872 244.799 C 272.781 244.799,271.415 245.192,271.415 246.084 C 271.415 246.364,271.162 246.690,270.853 246.808 C 270.210 247.055,270.095 248.382,270.684 248.746 C 270.946 248.908,271.058 252.516,271.019 259.546 C 270.987 265.353,271.021 270.356,271.094 270.665 C 271.207 271.139,270.579 271.228,267.104 271.228 L 262.980 271.228 262.883 254.807 L 262.785 238.386 263.820 237.294 L 264.855 236.203 272.727 236.283 L 280.600 236.364 280.708 239.613 M289.863 245.025 C 289.466 245.455,289.479 245.548,289.935 245.548 C 290.572 245.548,291.063 244.936,290.634 244.676 C 290.476 244.581,290.129 244.738,289.863 245.025 M283.705 245.450 C 284.795 245.526,286.482 245.525,287.454 245.448 C 288.426 245.371,287.535 245.309,285.473 245.310 C 283.411 245.311,282.616 245.374,283.705 245.450 M281.304 249.672 C 281.304 252.043,281.365 253.013,281.439 251.828 C 281.514 250.642,281.514 248.702,281.439 247.516 C 281.365 246.331,281.304 247.301,281.304 249.672 M290.545 249.457 C 290.333 250.014,290.159 250.771,290.159 251.138 C 290.159 251.505,289.822 252.110,289.410 252.484 C 288.997 252.857,288.660 253.383,288.660 253.653 C 288.660 254.015,287.704 254.175,285.005 254.266 L 281.350 254.389 285.103 254.467 C 288.673 254.542,288.875 254.504,289.227 253.702 C 289.667 252.699,290.301 252.723,290.462 253.749 C 290.537 254.221,290.305 254.568,289.808 254.725 C 289.042 254.969,289.039 255.076,288.943 285.966 L 288.847 316.963 285.414 317.071 C 280.785 317.216,281.136 316.052,281.251 330.879 L 281.350 343.580 285.647 343.687 C 288.506 343.758,290.041 343.946,290.233 344.249 C 290.434 344.565,290.524 344.508,290.528 344.061 C 290.534 343.494,290.005 343.404,286.129 343.311 L 281.724 343.205 281.724 330.459 L 281.724 317.713 285.473 317.526 L 289.222 317.338 289.318 286.329 C 289.412 255.783,289.425 255.313,290.161 254.919 C 290.991 254.475,291.156 253.067,290.459 252.371 C 290.109 252.021,290.161 251.921,290.693 251.921 C 291.263 251.921,291.297 251.827,290.900 251.348 C 290.527 250.898,290.520 250.564,290.868 249.800 C 291.112 249.264,291.226 248.739,291.121 248.634 C 291.016 248.529,290.757 248.899,290.545 249.457 M154.548 252.671 C 154.677 253.147,156.228 253.262,164.604 253.421 L 174.508 253.608 174.614 257.826 L 174.720 262.043 165.756 262.043 C 158.907 262.043,156.698 262.157,156.393 262.525 C 156.143 262.826,155.949 266.195,155.878 271.484 C 155.776 279.089,155.693 280.039,155.075 280.721 C 154.696 281.139,154.445 281.787,154.517 282.161 C 154.709 283.158,155.927 283.237,156.587 282.295 C 157.108 281.553,157.426 281.496,160.454 281.605 C 162.270 281.671,163.676 281.598,163.580 281.443 C 163.134 280.727,156.739 281.140,156.326 281.912 C 156.105 282.324,155.678 282.662,155.376 282.662 C 154.607 282.662,154.688 281.277,155.483 280.833 C 156.070 280.504,156.158 279.534,156.326 271.536 L 156.514 262.605 165.698 262.418 L 174.883 262.231 174.883 257.732 L 174.883 253.233 164.967 253.133 C 157.630 253.059,154.965 252.913,154.723 252.571 C 154.484 252.234,154.436 252.261,154.548 252.671 M181.318 260.794 C 181.181 260.931,181.068 261.353,181.068 261.731 C 181.068 262.340,180.728 262.418,178.069 262.418 C 175.517 262.418,175.070 262.511,175.070 263.045 C 175.070 263.389,174.775 263.997,174.414 264.395 C 173.896 264.967,173.758 265.799,173.758 268.361 L 173.758 271.603 177.940 271.708 C 183.043 271.837,182.887 271.679,183.023 276.873 L 183.130 280.975 186.563 281.082 L 189.995 281.189 190.804 280.054 C 191.569 278.979,191.578 278.874,190.983 278.072 L 190.355 277.226 190.561 278.110 C 191.074 280.318,190.398 280.787,186.701 280.787 L 183.318 280.787 183.318 276.690 C 183.318 271.342,183.391 271.415,178.043 271.415 L 173.946 271.415 173.946 268.920 C 173.946 267.113,174.178 265.932,174.789 264.636 L 175.633 262.847 178.418 262.726 C 181.100 262.610,181.214 262.567,181.479 261.575 C 181.764 260.502,181.738 260.374,181.318 260.794 M163.901 285.497 C 163.793 290.255,164.359 290.809,169.506 290.978 C 171.497 291.043,173.048 290.970,172.952 290.815 C 172.855 290.661,171.276 290.534,169.442 290.534 C 164.830 290.534,164.279 290.002,164.103 285.377 L 163.978 282.099 163.901 285.497 M154.880 290.493 C 154.526 290.718,154.497 290.893,154.787 291.072 C 155.015 291.213,155.201 291.150,155.201 290.931 C 155.201 290.309,163.249 290.404,163.770 291.032 C 164.035 291.351,164.220 294.408,164.285 299.561 L 164.386 307.591 166.352 307.705 C 168.128 307.807,169.522 308.703,168.889 309.336 C 168.803 309.422,169.156 309.528,169.673 309.570 C 170.216 309.615,170.516 309.491,170.383 309.276 C 170.256 309.071,169.950 308.903,169.703 308.903 C 169.455 308.903,169.042 308.566,168.784 308.154 C 168.418 307.567,167.910 307.404,166.445 307.404 L 164.574 307.404 164.574 299.231 C 164.574 293.375,164.446 290.932,164.124 290.609 C 163.597 290.082,155.685 289.983,154.880 290.493 M173.368 299.719 L 173.383 307.966 177.882 308.154 L 182.381 308.341 182.482 316.141 L 182.583 323.941 181.480 325.045 C 180.430 326.094,180.220 326.148,177.161 326.148 L 173.946 326.148 173.946 318.115 C 173.946 311.312,173.855 309.991,173.357 309.493 C 172.703 308.839,171.696 308.702,171.696 309.267 C 171.696 309.466,171.922 309.543,172.199 309.437 C 173.347 308.996,173.555 310.262,173.657 318.305 L 173.758 326.336 177.219 326.443 L 180.679 326.551 181.800 325.319 L 182.921 324.086 182.932 316.353 C 182.945 307.189,183.327 307.841,177.860 307.699 L 173.758 307.591 173.556 299.531 L 173.353 291.471 173.368 299.719 M183.880 325.773 C 183.261 326.183,182.460 326.519,182.099 326.520 C 181.739 326.522,181.443 326.680,181.443 326.872 C 181.443 327.353,183.633 326.693,184.430 325.972 C 186.655 323.959,191.380 325.740,190.431 328.234 C 190.230 328.763,190.088 329.818,190.116 330.577 C 190.163 331.889,190.178 331.871,190.409 330.221 C 190.543 329.265,190.874 328.216,191.144 327.891 C 192.984 325.674,186.767 323.861,183.880 325.773 M181.111 328.125 C 181.722 329.300,181.786 329.334,181.719 328.450 C 181.687 328.019,181.439 327.582,181.168 327.478 C 180.775 327.328,180.764 327.458,181.111 328.125 M181.574 332.896 C 181.574 334.649,181.639 335.366,181.718 334.489 C 181.797 333.613,181.797 332.179,181.718 331.303 C 181.639 330.426,181.574 331.143,181.574 332.896 M190.381 336.551 C 190.303 342.368,190.296 342.325,191.400 343.299 C 192.248 344.047,192.759 344.142,195.897 344.142 L 199.438 344.142 199.438 352.176 C 199.438 358.979,199.528 360.299,200.027 360.798 C 200.670 361.442,270.686 361.720,271.689 361.083 C 272.026 360.869,272.177 358.570,272.251 352.560 L 272.352 344.330 276.570 344.224 L 280.787 344.118 280.787 353.052 C 280.787 359.502,280.912 362.112,281.237 362.437 C 281.785 362.984,282.287 363.020,282.287 362.512 C 282.287 362.306,282.076 362.179,281.818 362.231 C 281.456 362.303,281.327 360.226,281.249 353.046 L 281.149 343.768 276.890 343.768 C 271.434 343.768,271.827 343.084,271.704 352.794 L 271.603 360.825 236.217 360.920 C 210.681 360.989,200.691 360.900,200.329 360.599 C 199.944 360.280,199.803 358.294,199.726 352.069 L 199.625 343.955 196.023 343.848 C 190.825 343.694,190.674 343.499,190.781 337.028 C 190.825 334.343,190.767 332.146,190.651 332.146 C 190.535 332.146,190.414 334.128,190.381 336.551 M181.559 339.831 C 181.562 341.068,181.632 341.529,181.715 340.856 C 181.798 340.182,181.797 339.170,181.711 338.606 C 181.626 338.043,181.557 338.594,181.559 339.831 M290.534 340.746 C 290.534 341.353,290.703 341.953,290.909 342.081 C 291.132 342.218,291.284 341.772,291.284 340.978 C 291.284 340.244,291.115 339.644,290.909 339.644 C 290.703 339.644,290.534 340.140,290.534 340.746 M181.216 343.329 C 181.398 343.623,182.919 343.768,185.829 343.768 C 189.527 343.768,190.243 343.865,190.662 344.424 C 191.109 345.020,191.134 345.003,190.940 344.236 C 190.736 343.424,190.572 343.393,186.491 343.393 C 184.161 343.393,181.960 343.280,181.600 343.142 C 181.154 342.970,181.032 343.030,181.216 343.329 M190.917 350.890 C 190.917 351.818,190.991 352.198,191.080 351.734 C 191.169 351.270,191.169 350.511,191.080 350.047 C 190.991 349.583,190.917 349.963,190.917 350.890 M190.932 355.576 C 190.934 356.813,191.004 357.274,191.087 356.601 C 191.170 355.927,191.169 354.915,191.083 354.351 C 190.998 353.788,190.929 354.339,190.932 355.576 M190.883 359.671 C 190.842 360.779,190.568 361.789,190.195 362.201 C 189.845 362.588,189.758 362.887,189.994 362.887 C 190.741 362.887,191.234 361.406,191.090 359.594 L 190.951 357.826 190.883 359.671 " stroke="none" fill="#747474" fill-rule="evenodd"></path><path id="path4" d="M242.249 28.191 C 241.764 28.676,241.660 29.942,242.027 30.897 C 242.471 32.054,242.850 31.467,242.645 29.941 C 242.481 28.719,242.548 28.428,242.962 28.564 C 243.250 28.659,243.541 29.106,243.607 29.557 C 243.673 30.008,243.868 30.290,244.040 30.183 C 244.435 29.939,244.062 28.395,243.519 28.028 C 242.957 27.648,242.768 27.673,242.249 28.191 M295.501 142.509 C 294.958 143.056,294.880 146.507,295.393 147.318 C 295.949 148.198,296.214 147.062,296.083 144.363 C 295.993 142.501,295.877 142.132,295.501 142.509 M180.784 202.565 C 180.696 221.878,180.712 222.399,181.443 223.328 C 181.925 223.940,182.193 224.849,182.193 225.867 C 182.193 226.885,181.925 227.794,181.443 228.406 C 180.720 229.326,180.694 229.927,180.694 245.718 L 180.694 262.077 178.163 261.967 L 175.633 261.856 175.588 257.612 C 175.559 254.911,175.382 253.208,175.101 252.926 C 174.508 252.332,155.201 252.052,155.201 252.637 C 155.201 252.903,158.434 253.066,165.042 253.133 L 174.883 253.233 175.070 257.732 L 175.258 262.231 178.069 262.231 L 180.881 262.231 180.976 245.736 C 181.062 230.780,181.130 229.197,181.702 228.774 C 182.750 227.997,182.861 224.098,181.864 223.101 C 181.085 222.322,181.074 222.069,180.975 202.534 L 180.874 182.755 180.784 202.565 M191.065 183.193 C 190.442 183.816,190.791 277.515,191.419 278.209 C 192.775 279.707,190.907 280.946,186.967 281.162 C 182.526 281.406,182.568 281.452,182.568 276.262 C 182.568 274.009,182.441 272.149,182.287 272.130 C 182.132 272.110,180.185 272.067,177.960 272.033 C 174.843 271.986,173.828 271.844,173.534 271.413 C 172.944 270.545,173.398 265.480,174.140 264.660 C 175.832 262.790,175.142 262.605,166.441 262.605 C 162.012 262.605,157.966 262.702,157.451 262.819 L 156.514 263.033 156.326 271.895 C 156.154 280.051,156.082 280.798,155.425 281.277 C 155.032 281.564,154.832 281.992,154.979 282.230 C 155.383 282.883,155.873 282.749,156.139 281.912 C 156.354 281.233,156.706 281.162,159.838 281.162 C 164.150 281.162,164.199 281.208,164.199 285.247 C 164.199 289.830,164.901 290.534,169.471 290.534 C 173.771 290.534,173.537 290.029,173.657 299.561 L 173.758 307.591 178.257 307.779 L 182.755 307.966 182.856 316.290 C 182.953 324.310,182.929 324.629,182.200 325.020 C 181.369 325.464,181.166 326.524,181.912 326.520 C 182.170 326.519,182.887 326.183,183.505 325.773 C 186.467 323.811,193.866 325.958,191.347 328.048 C 190.925 328.398,190.815 329.854,190.815 335.121 L 190.815 341.753 191.867 342.760 C 192.850 343.702,193.139 343.768,196.325 343.768 C 200.519 343.768,200.187 342.995,200.187 352.755 C 200.187 359.524,200.266 360.587,200.780 360.785 C 202.119 361.298,270.930 361.035,271.362 360.514 C 271.627 360.195,271.811 357.139,271.876 351.986 L 271.978 343.955 276.476 343.768 L 280.975 343.580 281.162 330.459 L 281.350 317.338 285.098 317.151 L 288.847 316.963 288.943 285.942 L 289.039 254.920 285.550 254.920 C 281.086 254.920,281.162 255.009,281.162 249.792 C 281.162 244.838,280.706 245.234,286.598 245.064 L 290.347 244.955 286.160 244.877 C 280.386 244.769,280.787 244.395,280.787 249.886 C 280.787 255.413,280.686 255.295,285.451 255.295 L 288.664 255.295 288.568 285.942 L 288.472 316.589 284.724 316.776 L 280.975 316.963 280.787 330.084 L 280.600 343.205 276.101 343.393 L 271.603 343.580 271.415 352.015 L 271.228 360.450 235.989 360.450 L 200.750 360.450 200.544 352.015 C 200.431 347.376,200.305 343.538,200.263 343.486 C 200.221 343.435,198.609 343.393,196.681 343.393 C 193.483 343.393,193.087 343.312,192.187 342.478 L 191.200 341.563 191.220 335.193 C 191.236 330.138,191.351 328.730,191.778 328.377 C 192.393 327.866,192.505 326.523,191.932 326.523 C 191.721 326.523,191.357 326.101,191.122 325.586 C 190.709 324.678,190.577 324.649,187.006 324.649 L 183.318 324.649 183.318 316.619 C 183.318 306.455,183.823 307.404,178.404 307.404 L 173.946 307.404 173.946 299.231 C 173.946 289.599,174.204 290.159,169.764 290.159 C 165.149 290.159,164.574 289.584,164.574 284.969 C 164.574 280.818,164.542 280.787,160.187 280.787 L 156.701 280.787 156.701 271.978 L 156.701 263.168 165.511 263.168 C 174.296 263.168,174.884 263.236,173.688 264.110 C 172.943 264.655,172.520 270.835,173.163 271.790 C 173.454 272.222,174.545 272.382,177.868 272.478 L 182.193 272.604 182.199 276.602 C 182.202 278.801,182.365 280.853,182.560 281.162 C 183.013 281.879,190.475 281.995,190.711 281.289 C 190.791 281.049,191.279 280.396,191.796 279.838 L 192.737 278.824 191.963 278.001 C 191.191 277.178,191.190 277.136,191.190 230.248 L 191.190 183.318 200.750 183.318 C 206.873 183.318,210.309 183.452,210.309 183.693 C 210.309 183.899,210.074 184.067,209.787 184.067 C 209.500 184.067,209.162 184.334,209.037 184.660 C 208.650 185.669,208.787 261.801,209.176 262.418 C 209.569 263.040,215.296 263.441,217.603 263.008 C 219.272 262.695,219.370 262.264,218.509 259.052 C 217.813 256.457,217.710 248.918,218.137 231.865 C 218.147 231.453,218.119 230.609,218.075 229.991 L 217.994 228.866 226.710 228.765 L 235.426 228.665 235.426 245.551 L 235.426 262.437 236.388 262.802 C 237.429 263.198,243.348 263.295,244.679 262.938 C 245.820 262.632,245.988 261.915,245.302 260.274 C 244.817 259.113,244.786 258.539,245.130 257.050 C 245.786 254.208,245.676 241.490,244.984 240.163 C 244.251 238.759,244.267 238.634,245.310 237.508 L 246.197 236.551 254.570 236.551 C 261.082 236.551,262.843 236.651,262.493 237.001 C 262.156 237.338,262.043 241.768,262.043 254.630 L 262.043 271.809 263.074 272.211 C 264.174 272.640,270.973 272.483,271.737 272.010 C 272.067 271.807,272.175 268.506,272.155 259.283 C 272.140 252.433,272.239 246.541,272.374 246.189 C 272.793 245.098,272.252 245.484,271.639 246.713 C 271.223 247.547,271.163 248.076,271.429 248.574 C 271.658 249.001,271.763 253.566,271.702 260.436 L 271.603 271.603 269.231 271.940 C 267.825 272.140,265.993 272.140,264.732 271.940 L 262.605 271.603 262.508 254.629 C 262.423 239.776,262.481 237.628,262.976 237.438 C 263.288 237.318,263.543 236.986,263.543 236.698 C 263.543 235.645,246.169 235.964,245.097 237.037 C 244.093 238.042,243.759 259.654,244.732 260.627 C 245.627 261.522,245.248 262.415,243.955 262.460 C 240.771 262.568,236.523 262.445,236.182 262.234 C 235.934 262.081,235.801 256.141,235.801 245.145 L 235.801 228.290 226.710 228.391 L 217.619 228.491 217.619 244.291 C 217.619 259.363,217.653 260.127,218.342 260.888 C 218.856 261.457,218.948 261.802,218.661 262.089 C 218.218 262.532,210.283 262.677,209.599 262.255 C 208.715 261.709,209.047 184.917,209.934 184.442 C 210.347 184.222,210.684 183.794,210.684 183.492 C 210.684 182.913,191.636 182.622,191.065 183.193 M219.103 183.411 C 219.004 183.669,218.968 191.640,219.021 201.125 L 219.119 218.369 223.749 218.684 C 226.583 218.877,230.071 218.850,232.746 218.617 L 237.113 218.235 232.583 218.415 C 230.091 218.514,226.081 218.477,223.672 218.333 L 219.292 218.071 219.393 200.507 C 219.449 190.846,219.446 182.943,219.388 182.943 C 219.330 182.943,219.202 183.154,219.103 183.411 M236.969 220.275 C 236.195 221.080,236.077 221.596,236.010 224.467 L 235.933 227.741 245.895 227.641 C 251.375 227.586,256.785 227.492,257.919 227.431 C 259.053 227.370,255.066 227.289,249.057 227.250 C 236.026 227.165,236.320 227.254,236.429 223.451 C 236.484 221.551,236.644 221.038,237.366 220.452 C 237.846 220.064,238.151 219.659,238.045 219.552 C 237.939 219.445,237.455 219.771,236.969 220.275 M262.799 228.253 L 264.105 228.953 264.213 232.377 L 264.321 235.801 272.541 235.801 C 282.112 235.801,281.537 235.530,281.537 240.050 C 281.537 242.764,281.496 242.890,280.187 244.199 C 279.263 245.123,279.027 245.548,279.438 245.548 C 279.768 245.548,280.037 245.290,280.037 244.974 C 280.037 244.658,280.333 244.291,280.694 244.158 C 281.768 243.762,281.900 243.273,281.906 239.690 C 281.914 235.106,282.468 235.364,272.750 235.412 L 264.667 235.451 264.667 232.278 C 264.667 229.006,263.845 227.554,261.991 227.554 C 261.717 227.554,262.080 227.869,262.799 228.253 M289.279 253.596 C 289.014 254.285,289.717 254.763,290.234 254.246 C 290.634 253.845,290.347 253.046,289.802 253.046 C 289.630 253.046,289.395 253.294,289.279 253.596 M159.231 291.189 L 163.449 291.309 163.455 299.263 C 163.461 308.327,163.436 308.240,166.103 308.403 C 167.277 308.475,168.385 308.787,168.852 309.179 C 169.453 309.683,169.428 309.601,168.742 308.825 C 168.030 308.018,167.465 307.792,165.931 307.703 L 164.011 307.591 163.910 299.250 L 163.809 290.909 159.412 290.989 L 155.014 291.069 159.231 291.189 M172.165 309.912 C 172.763 310.068,172.821 310.773,172.821 317.953 C 172.821 327.727,172.547 327.163,177.342 327.245 C 179.973 327.291,181.060 327.187,180.886 326.907 C 180.734 326.660,179.344 326.523,177.324 326.555 C 172.855 326.627,173.196 327.342,173.196 317.879 L 173.196 309.653 172.352 309.697 C 171.718 309.729,171.671 309.783,172.165 309.912 M180.869 335.677 C 180.879 342.640,180.967 343.921,181.443 344.079 C 181.901 344.230,181.920 344.161,181.545 343.706 C 181.222 343.314,181.050 340.807,180.971 335.304 L 180.857 327.460 180.869 335.677 M182.281 343.980 C 182.412 344.112,184.176 344.244,186.199 344.275 L 189.878 344.330 189.878 353.234 C 189.878 358.131,190.008 362.137,190.166 362.137 C 190.324 362.137,190.409 358.046,190.353 353.046 L 190.253 343.955 186.147 343.848 C 183.889 343.789,182.149 343.848,182.281 343.980 M281.620 353.046 L 281.704 362.324 281.902 353.327 L 282.099 344.330 286.094 344.330 C 288.291 344.330,290.010 344.203,289.915 344.049 C 289.819 343.894,287.894 343.768,285.639 343.768 L 281.537 343.768 281.620 353.046 " stroke="none" fill="#a3a3a3" fill-rule="evenodd"></path></g></svg>